<svg width="89" height="89" viewBox="0 0 89 89" fill="none" xmlns="http://www.w3.org/2000/svg">
<circle cx="41.5002" cy="47.2198" r="35.5" fill="#0178CC"/>
<path d="M83.7189 47.5266C84.3041 47.5784 84.8219 47.146 84.8583 46.5597C85.2236 40.6845 84.3076 34.7955 82.1687 29.3023C79.901 23.4783 76.32 18.2563 71.7042 14.0426C67.0885 9.82882 61.5627 6.7371 55.5568 5.00803C49.8919 3.37713 43.944 3.00005 38.1263 3.89767C37.5458 3.98725 37.1622 4.5422 37.267 5.12023C37.3717 5.69826 37.9251 6.0804 38.5058 5.99166C44.0012 5.1519 49.6179 5.51198 54.9682 7.05232C60.6596 8.69083 65.896 11.6206 70.27 15.6137C74.6439 19.6067 78.0374 24.5552 80.1863 30.0741C82.2065 35.2624 83.0754 40.8231 82.7385 46.3721C82.7029 46.9585 83.1338 47.4748 83.7189 47.5266Z" fill="#0178CC"/>
<path d="M39 38L47 46L39 54" stroke="white" stroke-width="2" stroke-linecap="round" stroke-linejoin="round"/>
</svg>
