<svg width="89" height="89" viewBox="0 0 89 89" fill="none" xmlns="http://www.w3.org/2000/svg">
<circle cx="44.5" cy="44.4173" r="35.5" fill="#0178CC"/>
<path d="M83.4386 47.5266C84.0238 47.5784 84.5416 47.146 84.5781 46.5597C84.9555 40.4884 83.9646 34.405 81.673 28.7604C79.2478 22.7871 75.4356 17.4769 70.5515 13.2688C65.6675 9.06067 59.8519 6.07562 53.5856 4.56042C47.3193 3.04523 40.7824 3.04342 34.5153 4.55515C28.2482 6.06688 22.4309 9.0487 17.5445 13.2541C12.6581 17.4595 8.84299 22.7676 6.41453 28.7396C3.98607 34.7116 3.01407 41.1759 3.57888 47.598C4.1126 53.6666 6.00414 59.5327 9.10799 64.7642C9.40774 65.2694 10.0657 65.4182 10.5629 65.1053C11.0601 64.7925 11.2082 64.1365 10.9092 63.6308C7.98473 58.6855 6.20216 53.1438 5.69802 47.4116C5.16279 41.3259 6.08389 35.2002 8.38516 29.541C10.6864 23.8818 14.3018 18.8516 18.9322 14.8665C23.5627 10.8814 29.0752 8.0557 35.0141 6.62316C40.953 5.19061 47.1475 5.19232 53.0856 6.62816C59.0237 8.064 64.5347 10.8927 69.163 14.8804C73.7912 18.8681 77.4037 23.9002 79.7019 29.5607C81.8665 34.8924 82.8065 40.6373 82.4582 46.3721C82.4226 46.9584 82.8535 47.4748 83.4386 47.5266Z" fill="#0178CC"/>
<path d="M41 35L49 43L41 51" stroke="white" stroke-width="2" stroke-linecap="round" stroke-linejoin="round"/>
</svg>
