<svg width="89" height="89" viewBox="0 0 89 89" fill="none" xmlns="http://www.w3.org/2000/svg">
<circle cx="44.5" cy="44.4173" r="35.5" fill="#0E7ECD"/>
<path d="M83.4386 47.5266C84.0238 47.5784 84.4576 48.095 84.3905 48.6786C83.2189 58.8718 78.229 68.2596 70.404 74.9367C62.3089 81.8442 51.8263 85.2989 41.2105 84.5577C30.5947 83.8165 20.6938 78.9386 13.6371 70.9731C6.5805 63.0077 2.93182 52.591 3.4758 41.9632C4.01978 31.3355 8.71297 21.3458 16.546 14.1425C24.3791 6.93914 34.7263 3.09767 45.3623 3.44424C55.9982 3.79079 66.0734 8.29769 73.4209 15.9957C80.5233 23.4368 84.5286 33.285 84.6533 43.5446C84.6605 44.132 84.1762 44.6016 83.5888 44.5934C83.0014 44.5852 82.5334 44.1021 82.5254 43.5147C82.3934 33.8126 78.5996 24.5024 71.8821 17.4645C64.9194 10.1697 55.3719 5.89884 45.293 5.57043C35.214 5.24201 25.4088 8.88228 17.986 15.7083C10.5632 22.5344 6.11583 32.0009 5.60034 42.072C5.08485 52.1431 8.54244 62.0142 15.2295 69.5625C21.9165 77.1107 31.2989 81.7331 41.3586 82.4355C51.4184 83.1379 61.3521 79.8642 69.0232 73.3184C76.4242 67.0032 81.1488 58.129 82.2707 48.491C82.3386 47.9075 82.8535 47.4748 83.4386 47.5266Z" fill="#0E7ECD"/>
<path d="M42 38L50 46L42 54" stroke="white" stroke-width="2" stroke-linecap="round" stroke-linejoin="round"/>
</svg>
