<svg width="20" height="20" viewBox="0 0 20 20" fill="none" xmlns="http://www.w3.org/2000/svg">
<path d="M18.858 6.2703C18.376 5.11987 17.6747 4.0742 16.7934 3.19159C15.9146 2.30744 14.8708 1.60449 13.7211 1.12265C12.5434 0.626639 11.2779 0.372386 10 0.374989H9.95704C8.65723 0.381435 7.4004 0.639247 6.21661 1.14628C5.0768 1.63306 4.04276 2.33726 3.17227 3.21952C2.29943 4.10015 1.60622 5.14216 1.13126 6.28749C0.638223 7.4785 0.388401 8.7561 0.396492 10.0451C0.402937 11.5361 0.759578 13.0164 1.42559 14.3398V17.6055C1.42559 18.1512 1.86817 18.5937 2.41173 18.5937H5.67305C7.00267 19.2647 8.46991 19.6177 9.95919 19.625H10.0043C11.2891 19.625 12.533 19.3758 13.7061 18.8881C14.8499 18.412 15.8899 17.7172 16.7676 16.8428C17.6527 15.9641 18.3488 14.9371 18.8365 13.792C19.3414 12.606 19.5992 11.3449 19.6057 10.043C19.61 8.73456 19.3565 7.46483 18.858 6.2703ZM5.71173 11.0312C5.14454 11.0312 4.68262 10.5693 4.68262 9.99999C4.68262 9.43065 5.14454 8.96874 5.71173 8.96874C6.27891 8.96874 6.74083 9.43065 6.74083 9.99999C6.74083 10.5693 6.28106 11.0312 5.71173 11.0312ZM10 11.0312C9.43282 11.0312 8.97091 10.5693 8.97091 9.99999C8.97091 9.43065 9.43282 8.96874 10 8.96874C10.5672 8.96874 11.0291 9.43065 11.0291 9.99999C11.0291 10.5693 10.5672 11.0312 10 11.0312ZM14.2883 11.0312C13.7211 11.0312 13.2592 10.5693 13.2592 9.99999C13.2592 9.43065 13.7211 8.96874 14.2883 8.96874C14.8555 8.96874 15.3174 9.43065 15.3174 9.99999C15.3174 10.5693 14.8555 11.0312 14.2883 11.0312Z" fill="#9798C2"/>
</svg>
