<svg width="18" height="22" viewBox="0 0 18 22" fill="none" xmlns="http://www.w3.org/2000/svg">
<path d="M15.3836 1.99995H14.5834C14.5787 2.63085 14.3256 3.23429 13.8792 3.67872C13.4329 4.12316 12.8296 4.37255 12.2008 4.37253H5.77223C5.14426 4.37253 4.54187 4.12286 4.09699 3.67817C3.65211 3.23348 3.40098 2.63003 3.3986 1.99995H2.62537C1.93136 2.00231 1.26631 2.27937 0.774724 2.77091C0.283138 3.26246 0.00473334 3.92879 0 4.62512V19.3658C0.00236991 20.0637 0.279732 20.7323 0.771572 21.2258C1.26341 21.7193 1.92981 21.9976 2.62537 22H15.3836C16.0783 21.9976 16.7438 21.719 17.2342 21.2252C17.7246 20.7315 18 20.0628 18 19.3658V4.62512C17.9976 3.92962 17.7212 3.26328 17.2311 2.77148C16.7409 2.27968 16.0768 2.00233 15.3836 1.99995ZM9 5.87907C9.82368 5.89329 10.6248 6.15135 11.3028 6.62085C11.9808 7.09034 12.5055 7.75035 12.8109 8.518C13.1163 9.28566 13.1889 10.1267 13.0196 10.9356C12.8502 11.7446 12.4465 12.4852 11.859 13.0647C11.2716 13.6442 10.5266 14.0366 9.71762 14.1927C8.90864 14.3488 8.07173 14.2616 7.31197 13.9421C6.55221 13.6226 5.90345 13.085 5.44716 12.3968C4.99087 11.7086 4.74738 10.9005 4.74725 10.0739C4.75196 9.51831 4.86569 8.96906 5.08196 8.45754C5.29823 7.94602 5.6128 7.48226 6.00771 7.09272C6.40261 6.70319 6.87012 6.39552 7.38354 6.18728C7.89696 5.97904 8.44624 5.87431 9 5.87907ZM12.7852 19.7807H5.23277C5.05393 19.7807 4.88241 19.7095 4.75595 19.5826C4.62949 19.4557 4.55844 19.2836 4.55844 19.1042C4.55844 18.9247 4.62949 18.7526 4.75595 18.6257C4.88241 18.4988 5.05393 18.4276 5.23277 18.4276H12.7852C12.9641 18.4276 13.1356 18.4988 13.262 18.6257C13.3885 18.7526 13.4595 18.9247 13.4595 19.1042C13.4595 19.2836 13.3885 19.4557 13.262 19.5826C13.1356 19.7095 12.9641 19.7807 12.7852 19.7807ZM12.7852 17.2277H5.23277C5.05393 17.2277 4.88241 17.1565 4.75595 17.0296C4.62949 16.9027 4.55844 16.7306 4.55844 16.5512C4.55844 16.3717 4.62949 16.1996 4.75595 16.0727C4.88241 15.9458 5.05393 15.8746 5.23277 15.8746H12.7852C12.9641 15.8746 13.1356 15.9458 13.262 16.0727C13.3885 16.1996 13.4595 16.3717 13.4595 16.5512C13.4595 16.7306 13.3885 16.9027 13.262 17.0296C13.1356 17.1565 12.9641 17.2277 12.7852 17.2277Z" fill="#9798C2"/>
<path d="M8.01309 13H9.97709V11.3224H12V9.68575H9.97709V7.99998H8.01309V9.68575H6V11.3224H8.01309V13Z" fill="#9798C2"/>
<path d="M12.0286 0H5.97161C5.43507 0 5.00012 0.41522 5.00012 0.927419V2.07258C5.00012 2.58478 5.43507 3 5.97161 3H12.0286C12.5652 3 13.0001 2.58478 13.0001 2.07258V0.927419C13.0001 0.41522 12.5652 0 12.0286 0Z" fill="#9798C2"/>
</svg>
