<svg width="18" height="22" viewBox="0 0 18 22" fill="none" xmlns="http://www.w3.org/2000/svg">
<path d="M15.3836 2H14.5834C14.5787 2.6309 14.3256 3.23434 13.8792 3.67877C13.4329 4.1232 12.8296 4.37259 12.2008 4.37258H5.77223C5.14426 4.37258 4.54187 4.1229 4.09699 3.67821C3.65211 3.23353 3.40098 2.63007 3.3986 2H2.62537C1.93136 2.00236 1.26631 2.27941 0.774724 2.77096C0.283138 3.26251 0.00473334 3.92884 0 4.62517V19.3658C0.00236991 20.0637 0.279732 20.7323 0.771572 21.2258C1.26341 21.7193 1.92981 21.9976 2.62537 22H15.3836C16.0783 21.9976 16.7438 21.719 17.2342 21.2253C17.7246 20.7315 18 20.0629 18 19.3658V4.62517C17.9976 3.92966 17.7212 3.26332 17.2311 2.77152C16.7409 2.27972 16.0768 2.00238 15.3836 2ZM9 5.87912C9.82368 5.89334 10.6248 6.15139 11.3028 6.62089C11.9808 7.09039 12.5055 7.7504 12.8109 8.51805C13.1163 9.2857 13.1889 10.1268 13.0196 10.9357C12.8502 11.7446 12.4465 12.4853 11.859 13.0648C11.2716 13.6442 10.5266 14.0366 9.71762 14.1927C8.90864 14.3488 8.07173 14.2616 7.31197 13.9421C6.55221 13.6226 5.90345 13.085 5.44716 12.3968C4.99087 11.7086 4.74738 10.9005 4.74725 10.074C4.75196 9.51835 4.86569 8.9691 5.08196 8.45759C5.29823 7.94607 5.6128 7.4823 6.00771 7.09277C6.40261 6.70324 6.87012 6.39557 7.38354 6.18733C7.89697 5.97909 8.44624 5.87436 9 5.87912ZM12.7852 19.7808H5.23277C5.05393 19.7808 4.88241 19.7095 4.75595 19.5826C4.62949 19.4557 4.55844 19.2836 4.55844 19.1042C4.55844 18.9248 4.62949 18.7527 4.75595 18.6258C4.88241 18.4989 5.05393 18.4276 5.23277 18.4276H12.7852C12.9641 18.4276 13.1356 18.4989 13.262 18.6258C13.3885 18.7527 13.4595 18.9248 13.4595 19.1042C13.4595 19.2836 13.3885 19.4557 13.262 19.5826C13.1356 19.7095 12.9641 19.7808 12.7852 19.7808ZM12.7852 17.2278H5.23277C5.05393 17.2278 4.88241 17.1565 4.75595 17.0296C4.62949 16.9027 4.55844 16.7306 4.55844 16.5512C4.55844 16.3718 4.62949 16.1997 4.75595 16.0728C4.88241 15.9459 5.05393 15.8746 5.23277 15.8746H12.7852C12.9641 15.8746 13.1356 15.9459 13.262 16.0728C13.3885 16.1997 13.4595 16.3718 13.4595 16.5512C13.4595 16.7306 13.3885 16.9027 13.262 17.0296C13.1356 17.1565 12.9641 17.2278 12.7852 17.2278Z" fill="#0178CC"/>
<path d="M8.01309 13H9.97709V11.3224H12V9.68576H9.97709V8H8.01309V9.68576H6V11.3224H8.01309V13Z" fill="#0178CC"/>
<path d="M12.0285 0H5.97149C5.43495 0 5 0.41522 5 0.927419V2.07258C5 2.58478 5.43495 3 5.97149 3H12.0285C12.565 3 13 2.58478 13 2.07258V0.927419C13 0.41522 12.565 0 12.0285 0Z" fill="#0178CC"/>
</svg>
