<svg width="105" height="96" viewBox="0 0 105 96" fill="none" xmlns="http://www.w3.org/2000/svg">
<g filter="url(#filter0_d_202_353)">
<path d="M26 41.8801C26 36.9555 28.8058 32.4611 33.2302 30.2987L46.5944 23.7667C50.1663 22.0209 54.3438 22.0209 57.9156 23.7667L71.2799 30.2987C75.7043 32.4612 78.5101 36.9555 78.5101 41.8801L78.5101 59.9381C78.5101 64.8208 75.7514 69.2844 71.3842 71.468L58.02 78.1501C54.3908 79.9647 50.1192 79.9647 46.4901 78.1501L33.1258 71.468C28.7586 69.2844 26 64.8208 26 59.9381L26 41.8801Z" fill="#0178CC"/>
<path d="M79.5101 59.9381L79.5101 41.8801C79.5101 36.5735 76.4866 31.7305 71.719 29.4002L58.3547 22.8683C54.5058 20.9871 50.0042 20.9871 46.1553 22.8683L32.7911 29.4002C28.0234 31.7305 25 36.5734 25 41.8801L25 59.9381C25 65.1996 27.9726 70.0094 32.6786 72.3624L46.0429 79.0445C49.9535 80.9999 54.5565 80.9999 58.4672 79.0445L71.8314 72.3624C76.5374 70.0094 79.5101 65.1996 79.5101 59.9381Z" stroke="white" stroke-width="2"/>
</g>
<path d="M58.7 46.6834L53.9 43.325C52.5917 42.4084 50.5833 42.4584 49.325 43.4334L45.15 46.6917C44.3167 47.3417 43.6583 48.675 43.6583 49.725V55.475C43.6583 57.6 45.3833 59.3334 47.5083 59.3334H56.4917C58.6167 59.3334 60.3417 57.6084 60.3417 55.4834V49.8334C60.3417 48.7084 59.6167 47.325 58.7 46.6834ZM52.625 56C52.625 56.3417 52.3417 56.625 52 56.625C51.6583 56.625 51.375 56.3417 51.375 56V53.5C51.375 53.1584 51.6583 52.875 52 52.875C52.3417 52.875 52.625 53.1584 52.625 53.5V56Z" fill="white"/>
<defs>
<filter id="filter0_d_202_353" x="-1.52588e-05" y="0.457397" width="104.51" height="109.054" filterUnits="userSpaceOnUse" color-interpolation-filters="sRGB">
<feFlood flood-opacity="0" result="BackgroundImageFix"/>
<feColorMatrix in="SourceAlpha" type="matrix" values="0 0 0 0 0 0 0 0 0 0 0 0 0 0 0 0 0 0 127 0" result="hardAlpha"/>
<feOffset dy="4"/>
<feGaussianBlur stdDeviation="12"/>
<feComposite in2="hardAlpha" operator="out"/>
<feColorMatrix type="matrix" values="0 0 0 0 0.4 0 0 0 0 0.305882 0 0 0 0 1 0 0 0 0.13 0"/>
<feBlend mode="normal" in2="BackgroundImageFix" result="effect1_dropShadow_202_353"/>
<feBlend mode="normal" in="SourceGraphic" in2="effect1_dropShadow_202_353" result="shape"/>
</filter>
</defs>
</svg>
