<svg width="22" height="22" viewBox="0 0 22 22" fill="none" xmlns="http://www.w3.org/2000/svg">
<path d="M11 1.83331C8.59831 1.83331 6.64581 3.78581 6.64581 6.18748C6.64581 8.54331 8.48831 10.45 10.89 10.5325C10.9633 10.5233 11.0366 10.5233 11.0916 10.5325C11.11 10.5325 11.1191 10.5325 11.1375 10.5325C11.1466 10.5325 11.1466 10.5325 11.1558 10.5325C13.5025 10.45 15.345 8.54331 15.3541 6.18748C15.3541 3.78581 13.4016 1.83331 11 1.83331Z" fill="#9798C2"/>
<path d="M15.6567 12.9709C13.0992 11.2659 8.92833 11.2659 6.35249 12.9709C5.18833 13.75 4.54666 14.8042 4.54666 15.9317C4.54666 17.0592 5.18833 18.1042 6.34333 18.8742C7.62666 19.7359 9.31333 20.1667 11 20.1667C12.6867 20.1667 14.3733 19.7359 15.6567 18.8742C16.8117 18.095 17.4533 17.05 17.4533 15.9134C17.4442 14.7859 16.8117 13.7409 15.6567 12.9709Z" fill="#9798C2"/>
</svg>
