<svg width="39" height="38" viewBox="0 0 39 38" fill="none" xmlns="http://www.w3.org/2000/svg">
<path fill-rule="evenodd" clip-rule="evenodd" d="M15.3153 1.52167C10.1894 -1.37731 5.64814 -0.0141632 1.87358 4.59052C-1.76945 9.03486 0.714347 17.0459 2.4999 22.8046C2.92559 24.1777 3.31169 25.4228 3.56542 26.4609C4.88374 31.8531 6.14498 35.2132 9.02093 37.6449C10.4453 38.8491 12.0602 36.7797 13.764 34.5964C15.2413 32.7035 16.7854 30.725 18.3298 30.7203C19.8491 30.7156 21.3687 32.691 22.8254 34.5846C24.5069 36.7705 26.1047 38.8473 27.5215 37.6449C29.7181 35.7807 30.7158 34.4129 31.9228 30.5722C35.9937 29.5128 39 25.7967 39 21.375C39 19.2032 38.2747 17.2017 37.0543 15.6014C38.2432 11.5391 38.3856 7.40347 34.9591 3.41133C30.0671 -2.28813 23.2865 0.655777 20.1301 2.54078L24.4055 6.22345C24.901 6.65024 24.9585 7.39991 24.5336 7.89783C24.1089 8.39575 23.3628 8.45346 22.8672 8.02655L15.3153 1.52167ZM36.6364 21.375C36.6364 25.31 33.4616 28.5 29.5455 28.5C25.6293 28.5 22.4545 25.31 22.4545 21.375C22.4545 17.44 25.6293 14.25 29.5455 14.25C33.4616 14.25 36.6364 17.44 36.6364 21.375ZM28.3636 17.8125C28.3636 17.1566 28.8927 16.625 29.5455 16.625C30.1982 16.625 30.7273 17.1566 30.7273 17.8125V20.1875H33.0909C33.7436 20.1875 34.2727 20.7191 34.2727 21.375C34.2727 22.0309 33.7436 22.5625 33.0909 22.5625H30.7273V24.9375C30.7273 25.5934 30.1982 26.125 29.5455 26.125C28.8927 26.125 28.3636 25.5934 28.3636 24.9375V22.5625H26C25.3473 22.5625 24.8182 22.0309 24.8182 21.375C24.8182 20.7191 25.3473 20.1875 26 20.1875H28.3636V17.8125Z" fill="#00C5E5"/>
</svg>
