<svg width="48" height="48" viewBox="0 0 48 48" fill="none" xmlns="http://www.w3.org/2000/svg">
<path d="M36.75 21C35.1183 21 33.5233 21.4839 32.1666 22.3904C30.8098 23.2969 29.7524 24.5854 29.128 26.0929C28.5036 27.6004 28.3402 29.2592 28.6585 30.8595C28.9769 32.4598 29.7626 33.9298 30.9164 35.0836C32.0702 36.2374 33.5402 37.0232 35.1405 37.3415C36.7409 37.6598 38.3997 37.4964 39.9071 36.872C41.4146 36.2476 42.7031 35.1902 43.6096 33.8335C44.5161 32.4767 45 30.8817 45 29.25C44.996 27.0632 44.1256 24.9671 42.5793 23.4207C41.0329 21.8744 38.9368 21.004 36.75 21ZM38.685 30.75H38.25V31.185C38.25 31.5828 38.092 31.9644 37.8107 32.2457C37.5294 32.527 37.1478 32.685 36.75 32.685C36.3522 32.685 35.9706 32.527 35.6893 32.2457C35.408 31.9644 35.25 31.5828 35.25 31.185V30.75H34.815C34.4172 30.75 34.0356 30.592 33.7543 30.3107C33.473 30.0294 33.315 29.6478 33.315 29.25C33.315 28.8522 33.473 28.4706 33.7543 28.1893C34.0356 27.908 34.4172 27.75 34.815 27.75H35.25V27.315C35.25 26.9172 35.408 26.5356 35.6893 26.2543C35.9706 25.973 36.3522 25.815 36.75 25.815C37.1478 25.815 37.5294 25.973 37.8107 26.2543C38.092 26.5356 38.25 26.9172 38.25 27.315V27.75H38.685C39.0828 27.75 39.4644 27.908 39.7457 28.1893C40.027 28.4706 40.185 28.8522 40.185 29.25C40.185 29.6478 40.027 30.0294 39.7457 30.3107C39.4644 30.592 39.0828 30.75 38.685 30.75Z" fill="#9F7CFE"/>
<path d="M27 25.5H3V34.5H27V25.5Z" fill="#9F7CFE"/>
<path d="M23.535 17.43C23.4023 17.4185 23.2794 17.3556 23.1925 17.2547C23.1057 17.1538 23.0617 17.0229 23.07 16.89V15C23.799 14.9082 24.469 14.552 24.9528 13.999C25.4367 13.4461 25.7008 12.7347 25.695 12V7.5C25.695 6.70435 25.3789 5.94129 24.8163 5.37868C24.2537 4.81607 23.4907 4.5 22.695 4.5H7.32001C6.52436 4.5 5.7613 4.81607 5.19869 5.37868C4.63608 5.94129 4.32001 6.70435 4.32001 7.5V12C4.31425 12.7347 4.57834 13.4461 5.06219 13.999C5.54604 14.552 6.216 14.9082 6.94501 15V16.935C6.95334 17.0679 6.90936 17.1988 6.82247 17.2997C6.73558 17.4006 6.61267 17.4635 6.48001 17.475C5.5517 17.4829 4.66434 17.8583 4.01214 18.5189C3.35993 19.1796 2.99601 20.0717 3.00001 21V22.5H27V21C27.0079 20.5378 26.9245 20.0786 26.7545 19.6487C26.5845 19.2189 26.3312 18.8268 26.0092 18.4951C25.6873 18.1634 25.303 17.8985 24.8784 17.7157C24.4538 17.533 23.9972 17.4359 23.535 17.43ZM3.00001 39.96C2.992 40.8883 3.3521 41.7821 4.0015 42.4455C4.6509 43.109 5.5367 43.4881 6.46501 43.5H23.535C24.4633 43.4881 25.3491 43.109 25.9985 42.4455C26.6479 41.7821 27.008 40.8883 27 39.96V37.5H3.00001V39.96Z" fill="#9F7CFE"/>
</svg>
