<svg width="50" height="50" viewBox="0 0 50 50" fill="none" xmlns="http://www.w3.org/2000/svg">
<path d="M12.5297 12.3719C12.3894 10.8684 12.7368 9.35969 13.5206 8.069C14.3043 6.77832 15.4828 5.77424 16.8815 5.20535C18.2803 4.63646 19.825 4.53297 21.2871 4.91022C22.7493 5.28746 24.0511 6.12539 25 7.3M25 43.1969C24.0514 44.2747 22.7607 44.993 21.3448 45.2311C19.9289 45.4692 18.4742 45.2126 17.2253 44.5043C15.9763 43.7961 15.0093 42.6794 14.4868 41.3421C13.9644 40.0047 13.9182 38.5283 14.3563 37.1609" stroke="#FF9E0C" stroke-width="4" stroke-miterlimit="10" stroke-linecap="round" stroke-linejoin="round"/>
<path d="M15.9937 35.9375C15.5172 36.4699 14.9253 36.8862 14.2633 37.1549C13.6012 37.4235 12.8866 37.5372 12.1738 37.4873C11.4611 37.4375 10.7692 37.2253 10.151 36.8671C9.53284 36.509 9.0047 36.0142 8.60697 35.4207C8.20924 34.8272 7.95245 34.1506 7.85621 33.4426C7.75998 32.7347 7.82684 32.0141 8.0517 31.336C8.27657 30.6578 8.65347 30.04 9.15362 29.5298C9.65377 29.0196 10.2639 28.6305 10.9375 28.3922M9.62654 28.8734C7.66612 27.9603 6.12205 26.3416 5.3024 24.3403C4.48275 22.3391 4.44778 20.1023 5.20447 18.0764C5.96117 16.0504 7.45389 14.3843 9.3848 13.4103C11.3157 12.4364 13.5429 12.2263 15.6219 12.8219M31.25 4.72969C30.0761 4.59724 28.8877 4.76339 27.7951 5.21271C26.7025 5.66204 25.7411 6.38 25 7.3M25 43.1969C25.9486 44.2747 27.2393 44.993 28.6552 45.2311C30.0711 45.4692 31.5258 45.2126 32.7747 44.5043C34.0237 43.7961 34.9907 42.6794 35.5132 41.3421C36.0356 40.0047 36.0817 38.5283 35.6437 37.1609" stroke="#FF9E0C" stroke-width="4" stroke-miterlimit="10" stroke-linecap="round" stroke-linejoin="round"/>
<path d="M34.0062 35.9375C34.4827 36.4699 35.0746 36.8862 35.7367 37.1549C36.3987 37.4235 37.1134 37.5372 37.8261 37.4873C38.5389 37.4375 39.2307 37.2253 39.8489 36.8671C40.4671 36.509 40.9953 36.0142 41.393 35.4207C41.7907 34.8272 42.0475 34.1506 42.1438 33.4426C42.24 32.7347 42.1731 32.0141 41.9483 31.336C41.7234 30.6578 41.3465 30.04 40.8464 29.5298C40.3462 29.0196 39.736 28.6305 39.0625 28.3922M40.3734 28.8734C42.2189 28.0072 43.6963 26.5132 44.5418 24.6582C45.3873 22.8032 45.5458 20.708 44.9891 18.7469M25 42.9688V7.5M18.75 20.3125C19.4984 21.1703 20.675 21.875 21.875 21.875C23.0781 21.875 24.1766 21.4219 25.0062 20.6766M31.25 29.6875C30.5266 30.5578 29.3234 31.25 28.125 31.25C26.9689 31.2517 25.8533 30.8247 24.9938 30.0516M45.3125 9.375H40.625V4.6875H35.9375V9.375H31.25V14.0625H35.9375V18.75H40.625V14.0625H45.3125V9.375Z" stroke="#FF9E0C" stroke-width="3" stroke-miterlimit="10" stroke-linecap="round" stroke-linejoin="round"/>
</svg>
