<svg width="48" height="48" viewBox="0 0 48 48" fill="none" xmlns="http://www.w3.org/2000/svg">
<path d="M19.9 24.7C19.3 24.7 18.9 25.1 18.9 25.7V27.2C18.9 27.8 19.3 28.2 19.9 28.2C20.5 28.2 20.9 27.8 20.9 27.2V25.7C20.9 25.2 20.5 24.7 19.9 24.7ZM28.1 24.7C27.5 24.7 27.1 25.1 27.1 25.7V27.2C27.1 27.8 27.5 28.2 28.1 28.2C28.7 28.2 29.1 27.8 29.1 27.2V25.7C29.1 25.2 28.6 24.7 28.1 24.7Z" fill="#3A7DF9"/>
<path d="M42.5 46.1C41.2 42.9 39.1 40 36.5 37.9H40V20C40 17 39.2 14.1 37.6 11.6L40.7 5.8L39.9 5.3C30.1 -1.2 17.8 -1.2 8 5.3L7.3 5.9L10.2 11.5C10.2 11.6 10.3 11.7 10.3 11.7C8.8 14.2 8 17.1 8 20V37.9H11.6C8.9 40.1 6.8 42.9 5.5 46.1L5 47.5H43L42.5 46.1ZM31.1 31.5C26.9 28.8 21.1 28.8 16.9 31.5L13.7 23.3C16.8 21.7 19 19.9 20 18.9C23.9 21.7 28.7 23.4 34.1 24.2L31.1 31.5ZM13.5 28.2L15.5 33.3V36.2C14.2 34.4 13.5 32.3 13.5 30.1V28.2ZM32.6 33.3L34.6 28.5V30C34.6 32.2 33.9 34.3 32.6 36.1V33.3ZM9.9 6.6C18.7 1.2 29.3 1.2 38.1 6.6L35.6 11.3C35 12.4 34.4 13.6 33.8 14.7L33.3 15.6C30.4 13.9 27.2 13 24 13C20.8 13 17.6 13.8 14.7 15.5L12 10.4L9.9 6.6ZM8 45.5C9.5 42.5 11.8 40 14.6 38.2C14.7 38.3 14.8 38.4 14.9 38.6L15.5 39.2V41.7L15.9 42C18.2 43.9 21.1 44.8 24.1 44.8C27.1 44.8 30 43.9 32.3 42L32.7 41.7V39.2L33.3 38.6C33.4 38.5 33.5 38.4 33.6 38.2C36.4 40 38.7 42.5 40.2 45.5H8Z" fill="#3A7DF9"/>
<path d="M23 11.4H25V9H27.4V7H25V4.5H23V7H20.6V9H23V11.4Z" fill="#3A7DF9"/>
</svg>
