<svg width="28" height="50" viewBox="0 0 28 50" fill="none" xmlns="http://www.w3.org/2000/svg">
<path d="M14.0484 0C12.8086 0 11.6195 0.501699 10.7428 1.39473C9.86611 2.28776 9.37358 3.49897 9.37358 4.7619C9.37358 6.02484 9.86611 7.23605 10.7428 8.12908C11.6195 9.02211 12.8086 9.52381 14.0484 9.52381C15.2883 9.52381 16.4774 9.02211 17.3541 8.12908C18.2308 7.23605 18.7233 6.02484 18.7233 4.7619C18.7233 3.49897 18.2308 2.28776 17.3541 1.39473C16.4774 0.501699 15.2883 0 14.0484 0ZM10.1847 11.9048C9.99767 11.9048 9.81535 11.9286 9.63771 11.9595C9.15203 11.8795 8.65395 11.9597 8.2162 12.1884C7.77844 12.4171 7.42394 12.7824 7.20445 13.231L0.264626 27.5524C0.120764 27.8336 0.0334819 28.1412 0.00790458 28.4572C-0.0176727 28.7732 0.0189692 29.0912 0.115679 29.3925C0.212389 29.6939 0.367219 29.9726 0.571084 30.2122C0.77495 30.4518 1.02374 30.6475 1.30287 30.7878C1.58199 30.9282 1.88582 31.0103 2.19652 31.0294C2.50723 31.0485 2.81855 31.0042 3.11223 30.8991C3.4059 30.794 3.67601 30.6303 3.9067 30.4174C4.13739 30.2045 4.32402 29.9469 4.45563 29.6595L7.03615 24.3405V47.619C7.03615 48.2505 7.28242 48.8561 7.72077 49.3026C8.15912 49.7492 8.75365 50 9.37358 50C9.9935 50 10.588 49.7492 11.0264 49.3026C11.4647 48.8561 11.711 48.2505 11.711 47.619V35.7143H16.3859V47.619C16.3859 48.2505 16.6321 48.8561 17.0705 49.3026C17.5088 49.7492 18.1034 50 18.7233 50C19.3432 50 19.9377 49.7492 20.3761 49.3026C20.8144 48.8561 21.0607 48.2505 21.0607 47.619V24.4929L23.5664 29.6595C23.7016 29.9407 23.8901 30.1919 24.1209 30.3987C24.3517 30.6055 24.6203 30.7638 24.9114 30.8645C25.2025 30.9651 25.5102 31.0062 25.8169 30.9853C26.1236 30.9645 26.4233 30.8821 26.6986 30.7429C26.9738 30.6042 27.2195 30.4117 27.4217 30.1764C27.6239 29.941 27.7786 29.6673 27.8769 29.3711C27.9752 29.0748 28.0153 28.7617 27.9948 28.4496C27.9743 28.1376 27.8936 27.8327 27.7574 27.5524L20.8176 13.231C20.6058 12.7967 20.2678 12.4396 19.8495 12.2083C19.4312 11.9769 18.953 11.8826 18.4802 11.9381C18.4264 11.9333 18.3797 11.9048 18.3259 11.9048H10.1847Z" fill="#FF9E0C"/>
</svg>
