<svg width="48" height="42" viewBox="0 0 48 42" fill="none" xmlns="http://www.w3.org/2000/svg">
<path fill-rule="evenodd" clip-rule="evenodd" d="M15.1471 9.82912C13.2635 9.09366 11.1898 9.00052 9.24775 9.56411C7.30573 10.1276 5.60393 11.3164 4.40667 12.9459C3.20934 14.5756 2.58335 16.5547 2.62584 18.5765C2.66832 20.5982 3.37691 22.5493 4.64164 24.1272C5.90633 25.705 7.65654 26.8212 9.62046 27.3028C11.5845 27.7842 13.6525 27.604 15.5036 26.7901C17.3547 25.9762 18.8854 24.5739 19.8582 22.8011C20.8308 21.0283 21.1913 18.984 20.8834 16.9854C20.7731 16.2694 21.2643 15.5994 21.9803 15.4891C22.6965 15.3789 23.3663 15.8699 23.4767 16.586C23.8725 19.1556 23.4091 21.784 22.1585 24.0633C20.9077 26.3426 18.9397 28.1454 16.5598 29.1919C14.1797 30.2384 11.5209 30.4701 8.99573 29.851C6.47058 29.2321 4.22044 27.7968 2.59436 25.7682C0.968275 23.7395 0.0572358 21.2309 0.00260812 18.6316C-0.0520196 16.0323 0.752822 13.4876 2.29225 11.3924C3.83167 9.29727 6.01954 7.76877 8.51649 7.0442C11.0133 6.31964 13.6796 6.43941 16.1014 7.38504C16.7764 7.64847 17.1099 8.40924 16.8463 9.08422C16.5829 9.75906 15.8221 10.0927 15.1471 9.82912Z" fill="#00C5E5"/>
<path fill-rule="evenodd" clip-rule="evenodd" d="M10.4952 40.6859V30.1907C10.4952 29.4661 11.0826 28.8788 11.8071 28.8788C12.5317 28.8788 13.119 29.4661 13.119 30.1907V40.6859C13.119 41.4105 12.5317 41.9978 11.8071 41.9978C11.0826 41.9978 10.4952 41.4105 10.4952 40.6859Z" fill="#00C5E5"/>
<path fill-rule="evenodd" clip-rule="evenodd" d="M6.55951 34.1264C6.55951 33.4018 7.14685 32.8145 7.87141 32.8145H15.7428C16.4674 32.8145 17.0548 33.4018 17.0548 34.1264C17.0548 34.8509 16.4674 35.4383 15.7428 35.4383H7.87141C7.14685 35.4383 6.55951 34.8509 6.55951 34.1264ZM30.0447 9.54548C28.0986 8.99618 26.0256 9.10455 24.1474 9.85378C22.2692 10.603 20.6908 11.9513 19.657 13.6893C18.6234 15.4273 18.1923 17.4578 18.4307 19.4658C18.5161 20.1854 18.0021 20.8378 17.2825 20.9232C16.563 21.0086 15.9105 20.4946 15.8251 19.7752C15.5188 17.1934 16.0731 14.5827 17.402 12.3481C18.731 10.1135 20.7604 8.38011 23.1752 7.41678C25.5901 6.45345 28.2554 6.31413 30.7575 7.02046C33.2597 7.72665 35.4587 9.23902 37.0134 11.3228C38.5682 13.4067 39.3916 15.9455 39.3561 18.5451C39.3204 21.1447 38.4278 23.66 36.8166 25.7004C35.2055 27.7409 32.9658 29.1926 30.4454 29.8302C27.9248 30.4677 25.2644 30.2555 22.8767 29.2264C22.2113 28.9396 21.9045 28.1678 22.1913 27.5024C22.478 26.837 23.2498 26.5302 23.9152 26.817C25.7722 27.6172 27.8415 27.7823 29.8019 27.2865C31.7624 26.7906 33.5042 25.6616 34.7573 24.0744C36.0105 22.4874 36.7049 20.5311 36.7324 18.5092C36.7601 16.4873 36.1196 14.5126 34.9104 12.8919C33.7013 11.2712 31.9908 10.0949 30.0447 9.54548Z" fill="#00C5E5"/>
<path fill-rule="evenodd" clip-rule="evenodd" d="M35.1497 12.0957C34.6374 11.5834 34.6374 10.7527 35.1497 10.2404L44.989 0.401093C45.5013 -0.111232 46.332 -0.111232 46.8443 0.401093C47.3566 0.913419 47.3566 1.74408 46.8443 2.2564L37.005 12.0957C36.4927 12.608 35.662 12.608 35.1497 12.0957Z" fill="#00C5E5"/>
<path fill-rule="evenodd" clip-rule="evenodd" d="M45.8175 9.20005C45.093 9.191 44.5131 8.59618 44.5223 7.87174L44.588 2.65745L39.3737 2.72317C38.6493 2.73223 38.0544 2.15238 38.0454 1.42789C38.0362 0.703404 38.6162 0.108691 39.3406 0.0995606L47.2454 0L47.1458 7.9048C47.1366 8.62924 46.542 9.20923 45.8175 9.20005Z" fill="#00C5E5"/>
</svg>
