<svg width="42" height="51" viewBox="0 0 42 51" fill="none" xmlns="http://www.w3.org/2000/svg">
<path d="M0.732422 39.1565C1.78624 39.4298 2.74784 39.9797 3.51764 40.7495C4.28744 41.5193 4.83743 42.4809 5.11064 43.5348C5.38386 42.4809 5.93385 41.5193 6.70365 40.7495C7.47344 39.9797 8.43505 39.4298 9.48887 39.1565C8.43505 38.8833 7.47344 38.3333 6.70365 37.5635C5.93385 36.7937 5.38386 35.8321 5.11064 34.7783C4.83743 35.8321 4.28744 36.7937 3.51764 37.5635C2.74784 38.3333 1.78624 38.8833 0.732422 39.1565ZM8.81738 46.2686C9.53923 46.4557 10.1979 46.8324 10.7252 47.3597C11.2525 47.887 11.6293 48.5457 11.8164 49.2676C12.0036 48.5457 12.3803 47.887 12.9076 47.3597C13.4349 46.8324 14.0936 46.4557 14.8154 46.2686C14.0936 46.0814 13.4349 45.7047 12.9076 45.1774C12.3803 44.6501 12.0036 43.9914 11.8164 43.2695C11.6293 43.9914 11.2525 44.6501 10.7252 45.1774C10.1979 45.7047 9.53923 46.0814 8.81738 46.2686Z" fill="#37B674"/>
<path d="M28.0252 16.3371C32.3588 16.3371 35.8719 12.8439 35.8719 8.53477C35.8719 4.22565 32.3588 0.732422 28.0252 0.732422C23.6916 0.732422 20.1785 4.22565 20.1785 8.53477C20.1785 12.8439 23.6916 16.3371 28.0252 16.3371Z" fill="#37B674"/>
<path d="M28.0252 0.732422C27.5337 0.732829 27.0433 0.778959 26.5604 0.870215C28.3523 1.20024 29.972 2.14771 31.1379 3.54795C32.3038 4.94819 32.9422 6.71268 32.9422 8.53477C32.9422 10.3569 32.3038 12.1213 31.1379 13.5216C29.972 14.9218 28.3523 15.8693 26.5604 16.1993C27.0433 16.2906 27.5337 16.3367 28.0252 16.3371C32.3588 16.3371 35.8719 12.8439 35.8719 8.53477C35.8719 4.22568 32.3588 0.732422 28.0252 0.732422Z" fill="#37B674"/>
<path d="M40.7051 27.2637C40.7051 34.6417 36.1032 39.6667 35.7973 39.9706C35.056 40.7068 30.8451 44.8898 25 44.7619C16.983 44.5864 9.29492 36.3756 9.29492 27.2636C9.29492 17.5995 16.3264 9.76533 25 9.76533C33.6736 9.76533 40.7051 17.5995 40.7051 27.2636V27.2637Z" fill="#37B674"/>
<path d="M25 9.76533C24.5107 9.76567 24.0218 9.79116 23.5352 9.8417C31.5219 10.6649 37.7754 18.15 37.7754 27.2636C37.7754 34.6417 33.1735 39.6667 32.8676 39.9706C32.2017 40.632 28.7347 44.0751 23.7983 44.6749C24.1975 44.7231 24.5983 44.753 25 44.7618C30.8451 44.8897 35.0562 40.7068 35.7973 39.9706C36.1032 39.6667 40.7051 34.6417 40.7051 27.2636C40.7051 17.5995 33.6736 9.76533 25 9.76533Z" fill="#37B674"/>
<path d="M13.7488 25.1516C13.7479 25.0914 13.762 25.0319 13.79 24.9786C13.8179 24.9253 13.8587 24.8798 13.9086 24.8462C13.9586 24.8127 14.0162 24.7922 14.0761 24.7865C14.136 24.7809 14.1964 24.7903 14.2518 24.814C15.5009 25.3501 17.2362 25.8599 19.2473 25.6862C21.7068 25.4739 22.363 24.4308 24.4897 24.6264C27.1318 24.8695 29.3068 26.7729 29.6943 27.1118C30.7323 28.0201 31.9791 29.5017 34.1553 29.86C34.1702 29.8625 34.1858 29.8649 34.1858 29.8649C34.7929 30.0065 35.4216 30.0289 36.0372 29.9311C36.1318 29.9168 36.2283 29.9406 36.3053 29.9974C36.3824 30.0542 36.4337 30.1392 36.4481 30.2338C36.8078 32.4826 36.787 34.7759 36.3866 37.0179C36.1708 38.213 35.3112 44.5124 30.5842 47.4736C30.204 47.7118 29.8244 47.9499 29.4455 48.1881C22.4028 52.6203 14.0456 42.3836 13.935 35.9593L13.7488 25.1516Z" fill="#37B674"/>
<path d="M36.4482 30.2338C36.4338 30.1392 36.3825 30.0541 36.3054 29.9973C36.2283 29.9406 36.1319 29.9167 36.0372 29.9311C35.4216 30.0289 34.7929 30.0065 34.1858 29.8649L34.1553 29.8601C31.9791 29.5017 30.7323 28.0202 29.6943 27.1118C29.3068 26.7729 27.1318 24.8694 24.4897 24.6265C23.8516 24.5606 23.2067 24.6217 22.5923 24.8062C24.752 25.3517 26.429 26.8182 26.7646 27.1118C27.8026 28.0201 29.0495 29.5017 31.2256 29.8601L31.2562 29.8649C31.8632 30.0065 32.4919 30.0289 33.1075 29.9311C33.2022 29.9167 33.2986 29.9406 33.3757 29.9973C33.4528 30.0541 33.5042 30.1392 33.5186 30.2338C33.8782 32.4826 33.8574 34.7759 33.4569 37.0179C33.2411 38.213 32.3815 44.5124 27.6545 47.4736C27.2743 47.7118 26.8947 47.95 26.5158 48.1882C25.8411 48.6182 25.0975 48.9288 24.3175 49.1066C25.1904 49.3018 26.0934 49.3212 26.9739 49.1635C27.8543 49.0058 28.6945 48.6742 29.4454 48.1882C29.824 47.9499 30.2036 47.7117 30.5842 47.4736C35.3112 44.5124 36.1709 38.2129 36.3866 37.0179C36.787 34.7759 36.8078 32.4826 36.4481 30.2337L36.4482 30.2338Z" fill="#37B674"/>
<path d="M16.3176 25.6862C16.5356 25.6676 16.7528 25.6407 16.9688 25.6056C16.0334 25.4572 15.1204 25.1912 14.2517 24.814C14.1963 24.7903 14.1359 24.7809 14.076 24.7866C14.0161 24.7922 13.9586 24.8128 13.9086 24.8463C13.8587 24.8798 13.8179 24.9253 13.79 24.9786C13.7621 25.032 13.7479 25.0914 13.7488 25.1516L13.7559 25.5581C14.6002 25.7151 15.4618 25.7582 16.3176 25.6862Z" fill="#FFC570"/>
<path d="M30.9424 31.1219C30.4732 31.4095 29.9436 31.5841 29.3953 31.6319C28.6438 31.688 27.8935 31.5089 27.2483 31.1193C27.082 31.019 26.8826 30.9889 26.694 31.0356C26.5055 31.0822 26.3432 31.2019 26.2429 31.3683C26.1425 31.5346 26.1124 31.734 26.1591 31.9225C26.2058 32.1111 26.3254 32.2734 26.4918 32.3737C27.2828 32.8492 28.1873 33.1031 29.1102 33.1087C29.2429 33.1087 29.3788 33.1033 29.5176 33.0916C30.2933 33.0244 31.0427 32.7778 31.7067 32.3713C31.7901 32.3217 31.8627 32.2561 31.9205 32.1783C31.9783 32.1004 32.0201 32.0118 32.0434 31.9177C32.0667 31.8236 32.071 31.7258 32.0562 31.63C32.0414 31.5341 32.0078 31.4422 31.9572 31.3595C31.9066 31.2768 31.84 31.2049 31.7614 31.1481C31.6829 31.0913 31.5938 31.0507 31.4994 31.0286C31.405 31.0065 31.3071 31.0034 31.2115 31.0194C31.1158 31.0354 31.0243 31.0702 30.9423 31.1219H30.9424ZM35.2975 13.065C36.1552 11.71 36.6085 10.1384 36.6043 8.53477C36.6043 3.82871 32.7557 0 28.0252 0C23.2947 0 19.4461 3.82871 19.4461 8.53477C19.4464 9.04342 19.492 9.55103 19.5825 10.0516C13.1727 12.5404 8.56259 19.3156 8.56259 27.2637C8.56259 32.1398 10.6613 36.9951 14.3243 40.6103C15.7843 43.9564 18.5063 47.1991 21.5167 48.8277C22.9683 49.6131 24.4102 50.0058 25.8043 50.0058C27.2349 50.0003 28.634 49.5847 29.8355 48.808C30.2137 48.57 30.5928 48.3321 30.973 48.0942C33.4579 46.5376 35.2559 43.9771 36.3404 40.4621C36.7368 40.0425 41.4375 34.8848 41.4375 27.2637C41.4375 21.5313 39.039 16.4095 35.2975 13.065ZM28.0252 1.46484C31.948 1.46484 35.1394 4.63643 35.1394 8.53477C35.1424 9.79974 34.8013 11.0417 34.1526 12.1277C31.535 10.1743 28.3854 9.03301 25 9.03301C23.6443 9.03283 22.295 9.2178 20.9894 9.58281C20.9374 9.23588 20.9112 8.88557 20.911 8.53477C20.911 4.63633 24.1024 1.46484 28.0253 1.46484H28.0252ZM35.6658 36.8877C35.6549 36.9482 35.6424 37.0215 35.6277 37.1064C34.8213 41.8208 32.9935 45.1 30.1954 46.8528C29.8148 47.0913 29.4348 47.3298 29.0554 47.5683C26.4616 49.2005 23.9032 48.4535 22.2138 47.5394C19.4809 46.0608 16.9519 43.0128 15.6289 39.9374C15.6223 39.9195 15.6149 39.9018 15.6068 39.8844C15.031 38.5316 14.6885 37.1754 14.6673 35.9467L14.4908 25.7003C16.106 26.3123 17.7249 26.5528 19.3102 26.416C20.5266 26.3109 21.3332 26.0198 22.0448 25.7631C22.8173 25.4844 23.4276 25.2637 24.4226 25.3558C26.5944 25.5555 28.4954 27.0358 29.212 27.6632C29.3689 27.8005 29.535 27.9554 29.7107 28.1194C30.6722 29.0167 31.989 30.2454 34.0352 30.5825L34.0452 30.5843C34.4747 30.6823 34.9143 30.7288 35.3548 30.7228C35.4957 30.7208 35.6365 30.7136 35.7769 30.701C36.0682 32.7561 36.0307 34.8444 35.6658 36.8877ZM37.1445 36.9283C37.522 34.6754 37.5312 32.3762 37.1718 30.1203C37.1497 29.9783 37.0999 29.842 37.0252 29.7193C36.9505 29.5966 36.8523 29.4898 36.7362 29.405C36.6202 29.3203 36.4886 29.2592 36.3489 29.2254C36.2093 29.1915 36.0643 29.1855 35.9224 29.2077C35.4002 29.2907 34.8669 29.2717 34.3519 29.1517C34.3344 29.1476 34.3168 29.1441 34.2991 29.1413L34.2743 29.1374C32.6643 28.8722 31.6262 27.9033 30.7102 27.0485C30.5256 26.8763 30.3512 26.7135 30.1767 26.5607C29.1532 25.6649 27.0621 24.1274 24.5568 23.897C23.2368 23.7757 22.3781 24.0854 21.5476 24.3853C20.8898 24.6226 20.2098 24.868 19.1844 24.9565C17.6684 25.0874 16.1064 24.8129 14.5406 24.1409C14.3729 24.0691 14.1898 24.0403 14.0081 24.0573C13.8264 24.0743 13.6519 24.1365 13.5004 24.2382C13.3489 24.3399 13.2253 24.4779 13.1407 24.6397C13.0562 24.8014 13.0135 24.9817 13.0165 25.1642L13.2026 35.9718C13.2112 36.3723 13.2451 36.7719 13.3042 37.1681C11.1972 34.2233 10.0274 30.7468 10.0274 27.2637C10.0274 18.0189 16.7441 10.4978 25.0001 10.4978C33.256 10.4978 39.9726 18.0189 39.9726 27.2637C39.9726 30.2234 39.2148 33.1372 37.7204 35.9238C37.538 36.264 37.3459 36.599 37.1445 36.9283ZM10.2213 39.1566C10.2213 38.9944 10.1674 38.8367 10.0681 38.7084C9.96886 38.5801 9.82979 38.4884 9.67274 38.4477C8.74547 38.2069 7.89936 37.7228 7.22194 37.0454C6.54452 36.368 6.06038 35.5219 5.81962 34.5946C5.7789 34.4376 5.68718 34.2985 5.55886 34.1992C5.43054 34.0999 5.27288 34.046 5.11063 34.046C4.94838 34.046 4.79072 34.0999 4.6624 34.1992C4.53408 34.2985 4.44237 34.4376 4.40165 34.5946C4.16089 35.5219 3.67677 36.368 2.99937 37.0454C2.32196 37.7228 1.47587 38.2069 0.548621 38.4477C0.391561 38.4884 0.252467 38.5801 0.153172 38.7084C0.0538761 38.8367 0 38.9944 0 39.1566C0 39.3189 0.0538761 39.4766 0.153172 39.6049C0.252467 39.7332 0.391561 39.8249 0.548621 39.8656C1.47589 40.1064 2.32201 40.5905 2.99943 41.2679C3.67686 41.9453 4.16099 42.7914 4.40175 43.7186C4.44246 43.8757 4.53418 44.0148 4.6625 44.1141C4.79082 44.2134 4.94848 44.2673 5.11073 44.2673C5.27298 44.2673 5.43064 44.2134 5.55896 44.1141C5.68728 44.0148 5.779 43.8757 5.81971 43.7186C6.06046 42.7914 6.54458 41.9453 7.22199 41.2679C7.89939 40.5905 8.74549 40.1064 9.67274 39.8656C9.82979 39.8249 9.96886 39.7332 10.0681 39.6048C10.1674 39.4765 10.2213 39.3189 10.2213 39.1566ZM5.11063 41.6283C4.51427 40.6046 3.66267 39.753 2.63895 39.1566C3.66267 38.5603 4.51427 37.7087 5.11063 36.685C5.70699 37.7087 6.5586 38.5603 7.58231 39.1566C6.5586 39.753 5.70699 40.6046 5.11063 41.6283ZM27.9498 41.0294C27.8758 40.968 27.7904 40.9218 27.6985 40.8934C27.6066 40.865 27.51 40.855 27.4142 40.8639C27.3185 40.8728 27.2254 40.9006 27.1403 40.9455C27.0553 40.9904 26.9799 41.0516 26.9185 41.1257C26.5833 41.5325 26.1162 41.8092 25.5983 41.9079C24.4079 42.1079 23.5161 41.1186 23.5072 41.1085C23.3787 40.9628 23.1976 40.8742 23.0037 40.8621C22.8098 40.85 22.619 40.9154 22.4734 41.0439C22.3277 41.1724 22.2391 41.3535 22.227 41.5474C22.2148 41.7413 22.2803 41.9321 22.4088 42.0777C22.5396 42.226 23.6285 43.401 25.2643 43.401C25.4575 43.4009 25.6503 43.3847 25.8408 43.3525C26.7064 43.1985 27.4886 42.7403 28.0463 42.0606C28.1702 41.9111 28.2297 41.7184 28.2116 41.525C28.1935 41.3316 28.0993 41.1534 27.9498 41.0294ZM22.9005 31.3644C22.7991 31.1987 22.6361 31.0801 22.4472 31.0346C22.2584 30.9891 22.0592 31.0205 21.8935 31.1219C21.4244 31.4095 20.8947 31.5841 20.3465 31.6319C19.595 31.688 18.8447 31.5089 18.1996 31.1193C18.0333 31.019 17.8339 30.9889 17.6453 31.0356C17.4567 31.0822 17.2945 31.2019 17.1941 31.3683C17.0938 31.5346 17.0637 31.734 17.1104 31.9225C17.157 32.1111 17.2767 32.2734 17.4431 32.3737C18.2341 32.8492 19.1386 33.1031 20.0615 33.1087C20.194 33.1087 20.33 33.1033 20.4687 33.0916C21.2444 33.0244 21.9939 32.7778 22.6579 32.3713C22.8236 32.2699 22.9422 32.1069 22.9877 31.9181C23.0332 31.7292 23.0018 31.5301 22.9005 31.3644ZM14.9993 45.5597C14.4039 45.4051 13.8607 45.0943 13.4257 44.6593C12.9908 44.2244 12.6799 43.6811 12.5254 43.0857C12.4847 42.9287 12.3929 42.7896 12.2646 42.6903C12.1363 42.591 11.9786 42.5371 11.8164 42.5371C11.6541 42.5371 11.4965 42.591 11.3682 42.6903C11.2398 42.7896 11.1481 42.9287 11.1074 43.0857C10.9528 43.6811 10.642 44.2243 10.2071 44.6592C9.77216 45.0942 9.22892 45.405 8.63358 45.5596C8.47652 45.6003 8.33743 45.692 8.23813 45.8203C8.13884 45.9486 8.08496 46.1063 8.08496 46.2686C8.08496 46.4308 8.13884 46.5885 8.23813 46.7168C8.33743 46.8451 8.47652 46.9368 8.63358 46.9775C9.22895 47.1321 9.77221 47.4429 10.2072 47.8779C10.6421 48.3128 10.9529 48.8561 11.1075 49.4515C11.1482 49.6085 11.24 49.7476 11.3683 49.8469C11.4966 49.9462 11.6543 50 11.8165 50C11.9788 50 12.1364 49.9461 12.2648 49.8468C12.3931 49.7475 12.4848 49.6084 12.5255 49.4514C12.68 48.856 12.9909 48.3128 13.4258 47.8779C13.8607 47.4429 14.404 47.1321 14.9993 46.9775C15.1564 46.9368 15.2955 46.8451 15.3948 46.7168C15.4941 46.5885 15.5479 46.4308 15.5479 46.2686C15.5479 46.1063 15.4941 45.9486 15.3948 45.8203C15.2955 45.692 15.1564 45.6003 14.9993 45.5596V45.5597ZM11.8164 47.5311C11.476 47.0369 11.0481 46.609 10.5539 46.2686C11.0481 45.9281 11.476 45.5002 11.8164 45.006C12.1569 45.5002 12.5847 45.9281 13.079 46.2686C12.5847 46.609 12.1569 47.0369 11.8164 47.5311Z" fill="#006732"/>
</svg>
